<svg width="124" height="117" viewBox="0 0 124 117" fill="none" xmlns="http://www.w3.org/2000/svg">
<path d="M90 35.1696C90 34.8887 89.9949 34.6077 89.9844 34.3268V0H35V45.2923V45.8236C35 60.8086 47.3342 73 62.4949 73C77.4747 73 89.6951 61.0946 89.9793 46.3597H89.9844V45.8287V45.2974V35.7058H90V35.1696ZM84.5952 34.6383C84.3057 22.8402 74.5138 13.3252 62.5051 13.3252C50.4965 13.3252 40.7046 22.8402 40.4153 34.6383H36.1006C36.3848 20.4858 48.1248 9.06052 62.5103 9.06052C76.8029 9.06052 88.4756 20.3376 88.9097 34.3626V34.6383H84.5952ZM79.216 34.6383H79.2057C78.9215 25.777 71.5427 18.6522 62.5051 18.6522C53.4729 18.6522 46.094 25.777 45.8047 34.6383H45.7892H41.4849C41.7742 23.4277 51.0908 14.3926 62.5 14.3926C73.9143 14.3926 83.231 23.4277 83.5151 34.6383H79.216ZM88.889 46.753C88.8839 46.8655 88.8839 46.983 88.8736 47.0952C88.8685 47.2025 88.8632 47.3149 88.8529 47.4221C88.8478 47.5345 88.8373 47.6469 88.8322 47.7593C88.8219 47.8665 88.8115 47.9789 88.8063 48.0862C88.7961 48.1933 88.7858 48.3057 88.7753 48.4131C88.7651 48.5253 88.7495 48.6326 88.7392 48.745C88.729 48.8521 88.7134 48.9595 88.7031 49.0617C88.6875 49.1741 88.6719 49.2863 88.6565 49.3936C88.641 49.4958 88.6256 49.603 88.61 49.7052C88.5946 49.8176 88.5739 49.9298 88.5583 50.0422C88.5429 50.1444 88.5273 50.2466 88.5067 50.3487C88.486 50.4611 88.4653 50.5735 88.4446 50.6857C88.4241 50.7879 88.4085 50.885 88.3878 50.9872C88.3672 51.0995 88.3414 51.2119 88.3155 51.3243C88.2948 51.4212 88.2741 51.5183 88.2534 51.6154C88.2277 51.7276 88.2019 51.84 88.1709 51.9525C88.145 52.0495 88.1243 52.1413 88.0985 52.2384C88.0675 52.3509 88.0365 52.4631 88.0107 52.5755C87.9848 52.6675 87.959 52.7646 87.9331 52.8564C87.9021 52.9688 87.866 53.0812 87.835 53.1935C87.8092 53.2854 87.778 53.3774 87.7523 53.4694C87.716 53.5816 87.6799 53.6941 87.6438 53.8065C87.6128 53.8983 87.587 53.9851 87.556 54.072C87.5197 54.1844 87.4784 54.2967 87.437 54.4091C87.406 54.496 87.375 54.5826 87.3441 54.6746C87.3026 54.787 87.2614 54.8995 87.2201 55.0066C87.1889 55.0935 87.1528 55.1803 87.1218 55.2672C87.0806 55.3794 87.034 55.4919 86.9875 55.5992C86.9514 55.6859 86.9204 55.7676 86.8843 55.8545C86.8377 55.9669 86.7911 56.074 86.7394 56.1865C86.7033 56.2682 86.6672 56.35 86.6309 56.4367C86.5794 56.544 86.5328 56.6564 86.4811 56.7635C86.445 56.8453 86.4036 56.927 86.3674 57.0088C86.3157 57.1159 86.264 57.2232 86.2072 57.3357C86.166 57.4174 86.1245 57.4939 86.0884 57.5756C86.0316 57.683 85.9799 57.7901 85.923 57.8923C85.8818 57.974 85.8404 58.0507 85.794 58.1325C85.7423 58.2294 85.6854 58.3265 85.6337 58.4287L64.5101 46.3751H88.9046C88.9046 46.4006 88.9046 46.4211 88.9046 46.4466C88.8995 46.5386 88.8941 46.6459 88.889 46.753ZM84.8379 59.7412C84.7708 59.8434 84.7088 59.9454 84.6415 60.0425C84.5951 60.114 84.5435 60.1907 84.4969 60.2622C84.4298 60.3643 84.3625 60.4613 84.2903 60.5635C84.2386 60.6351 84.1869 60.7064 84.1403 60.778C84.0681 60.8751 84.0008 60.9722 83.9286 61.0742C83.8769 61.1457 83.8252 61.2173 83.7735 61.2888C83.7012 61.3857 83.6288 61.4828 83.5564 61.5799C83.5049 61.6514 83.448 61.7179 83.3963 61.7892C83.3239 61.8863 83.2464 61.9783 83.1741 62.0703C83.1173 62.1365 83.0605 62.208 83.0088 62.2745C82.9312 62.3665 82.8537 62.4583 82.7763 62.5502C82.7193 62.6167 82.6624 62.6831 82.6056 62.7546C82.5283 62.8464 82.4507 62.9384 82.368 63.0253C82.3112 63.0917 82.2492 63.158 82.1924 63.2244C82.1097 63.3113 82.0322 63.4032 81.9495 63.4901C81.8875 63.5564 81.8307 63.6177 81.7685 63.6841C81.686 63.771 81.6033 63.8578 81.5207 63.9445C81.4585 64.0059 81.3965 64.0723 81.3346 64.1336C81.2519 64.2205 81.1641 64.3021 81.0814 64.3889C81.0194 64.4502 80.9521 64.5116 80.8902 64.5729C80.8024 64.6545 80.7197 64.7362 80.6319 64.818C80.5646 64.8793 80.5026 64.9406 80.4355 64.9967C80.3477 65.0784 80.2597 65.1551 80.1719 65.2368C80.1048 65.2981 80.0377 65.3542 79.9704 65.4155C79.8826 65.4921 79.7896 65.5739 79.7018 65.6505C79.6345 65.7117 79.5623 65.7679 79.4899 65.8241C79.3969 65.9008 79.3089 65.9723 79.216 66.0488C79.1437 66.105 79.0713 66.1612 79.0042 66.2174C78.9111 66.2889 78.8181 66.3656 78.7252 66.4369C78.6528 66.4931 78.5804 66.5494 78.5081 66.6005C78.415 66.672 78.322 66.7434 78.2239 66.8098C78.1515 66.866 78.074 66.9171 78.0018 66.9733C77.9086 67.0397 77.8105 67.1111 77.7123 67.1775C77.6349 67.2286 77.5574 67.2848 77.4798 67.3359C77.3817 67.4024 77.2886 67.4686 77.1905 67.5299C77.113 67.581 77.0354 67.6321 76.9579 67.6832C76.8598 67.7446 76.7615 67.811 76.6634 67.8721C76.5859 67.9232 76.5032 67.9692 76.4256 68.0203C76.3483 68.0663 76.2707 68.1174 76.1932 68.1634L63.9986 47.2843L85.1221 59.3377C85.0859 59.399 85.0498 59.4552 85.0137 59.5165C84.931 59.5879 84.8844 59.6645 84.8379 59.7412ZM74.7412 68.9549C74.6378 69.006 74.5397 69.0622 74.4363 69.1133C74.3485 69.1593 74.2607 69.2002 74.1728 69.2411C74.0694 69.292 73.966 69.3431 73.8628 69.3891C73.7748 69.4299 73.687 69.4708 73.5941 69.5117C73.4907 69.5577 73.3874 69.6086 73.284 69.6546C73.1911 69.6955 73.1031 69.7312 73.0101 69.7721C72.9067 69.8181 72.8035 69.8641 72.7001 69.905C72.6072 69.9459 72.514 69.9815 72.4211 70.0172C72.3177 70.0581 72.2145 70.1041 72.1059 70.145C72.0128 70.1807 71.9147 70.2165 71.8218 70.2523C71.7184 70.2932 71.6098 70.3288 71.5064 70.3696C71.4083 70.4054 71.3152 70.4361 71.2171 70.4718C71.1137 70.5076 71.0052 70.5434 70.902 70.5791C70.8037 70.6098 70.7056 70.6405 70.6074 70.676C70.504 70.7118 70.3956 70.7425 70.2922 70.7782C70.194 70.8089 70.0907 70.8396 69.9873 70.8651C69.8839 70.8958 69.7754 70.9264 69.6722 70.9571C69.5688 70.9878 69.4654 71.0133 69.3622 71.0387C69.2588 71.0693 69.1502 71.0949 69.0417 71.1255C68.9383 71.1511 68.8298 71.1766 68.7266 71.2022C68.6231 71.2277 68.5146 71.2533 68.4114 71.2788C68.3029 71.3044 68.1943 71.3248 68.0858 71.3504C67.9824 71.3708 67.8739 71.3964 67.7707 71.4166C67.6621 71.4371 67.5536 71.4575 67.4399 71.478C67.3365 71.4984 67.2331 71.5188 67.1246 71.5393C67.0109 71.5597 66.9026 71.575 66.7887 71.5955C66.6855 71.6108 66.5821 71.6312 66.4736 71.6466C66.3599 71.6619 66.2462 71.6772 66.1274 71.6926C66.024 71.7079 65.9206 71.7232 65.8174 71.7335C65.6984 71.7488 65.5796 71.7588 65.4608 71.7741C65.3626 71.7844 65.2593 71.7997 65.1611 71.8099C65.0372 71.8201 64.9079 71.8304 64.784 71.8457C64.6908 71.8559 64.5927 71.861 64.4998 71.8712C64.3654 71.8815 64.2362 71.8866 64.1018 71.8968C64.014 71.9019 63.921 71.907 63.8332 71.9121C63.6937 71.9172 63.549 71.9223 63.4095 71.9275C63.3268 71.9326 63.2442 71.9326 63.1615 71.9377C63.1149 71.9377 63.0683 71.9377 63.0271 71.9377V47.8256L75.2217 68.7047C75.1441 68.7456 75.0668 68.7915 74.9892 68.8324C74.9117 68.8682 74.8239 68.9089 74.7412 68.9549ZM61.57 71.9172C61.4304 71.9121 61.2858 71.907 61.1463 71.9019C61.0583 71.8968 60.9653 71.8917 60.8775 71.8866C60.7431 71.8764 60.6087 71.8712 60.4797 71.861C60.3814 71.8559 60.2885 71.8457 60.1955 71.8355C60.0714 71.8252 59.9421 71.815 59.8182 71.7997C59.7148 71.7895 59.6167 71.7793 59.5185 71.7639C59.3997 71.7488 59.2809 71.7386 59.1621 71.7232C59.0587 71.713 58.9553 71.6926 58.8519 71.6824C58.7382 71.667 58.6194 71.6517 58.5057 71.6364C58.4023 71.621 58.2991 71.6006 58.1906 71.5853C58.0769 71.5648 57.9684 71.5495 57.8547 71.5291C57.7513 71.5086 57.6479 71.4882 57.5396 71.4677C57.431 71.4473 57.3174 71.4268 57.2088 71.4064C57.1054 71.3862 56.9969 71.3606 56.8935 71.3402C56.7851 71.3197 56.6766 71.2942 56.5681 71.2686C56.4647 71.2431 56.3561 71.2175 56.2527 71.192C56.1495 71.1664 56.041 71.1409 55.9376 71.1153C55.8291 71.0898 55.7258 71.0591 55.6173 71.0286C55.5139 71.0031 55.4105 70.9724 55.3073 70.9469C55.1988 70.9162 55.0954 70.8856 54.992 70.8549C54.8887 70.8242 54.7905 70.7987 54.6871 70.768C54.5787 70.7374 54.4753 70.7016 54.3719 70.666C54.2738 70.6353 54.1756 70.6047 54.0775 70.5689C53.969 70.5331 53.8656 70.4974 53.7621 70.4616C53.6641 70.4258 53.5711 70.3952 53.4729 70.3594C53.3695 70.3236 53.261 70.2829 53.1576 70.2421C53.0646 70.2063 52.9665 70.1705 52.8735 70.1348C52.7701 70.0939 52.6668 70.053 52.5583 70.007C52.4652 69.9712 52.3722 69.9305 52.2792 69.8948C52.1759 69.8539 52.0725 69.8079 51.9692 69.7619C51.8762 69.721 51.7832 69.6853 51.6953 69.6444C51.592 69.5986 51.4886 69.5526 51.3853 69.5015C51.2974 69.4606 51.2096 69.4197 51.1166 69.3788C51.0133 69.3277 50.9099 69.2817 50.8066 69.2308C50.7187 69.1899 50.6309 69.144 50.543 69.1031C50.4397 69.052 50.3415 69.0009 50.2382 68.9447C50.1503 68.8987 50.0676 68.858 49.9798 68.812C49.9023 68.7711 49.8248 68.7302 49.7473 68.6842L61.9419 47.8051V71.9172C61.8954 71.9172 61.849 71.9172 61.8076 71.9172C61.7353 71.9275 61.6526 71.9223 61.57 71.9172ZM48.3521 67.8721C48.254 67.811 48.1558 67.7446 48.0576 67.6832C47.9801 67.6321 47.9026 67.581 47.8251 67.5299C47.7269 67.4635 47.6339 67.4024 47.5357 67.3359C47.4582 67.2848 47.3807 67.2337 47.3032 67.1775C47.205 67.1111 47.112 67.0397 47.0138 66.9733C46.9415 66.9222 46.864 66.866 46.7916 66.8098C46.6986 66.7384 46.6004 66.6669 46.5074 66.6005C46.4351 66.5443 46.3627 66.4931 46.2904 66.4369C46.1974 66.3656 46.1044 66.294 46.0114 66.2174C45.939 66.1612 45.8667 66.105 45.7995 66.0488C45.7065 65.9723 45.6187 65.9008 45.5256 65.8241C45.4533 65.7679 45.3861 65.7066 45.3138 65.6505C45.2208 65.5739 45.1329 65.4972 45.0451 65.4155C44.9779 65.3542 44.9107 65.2981 44.8436 65.2368C44.7557 65.1551 44.6679 65.0784 44.58 64.9967C44.5129 64.9355 44.4509 64.8742 44.3837 64.818C44.2958 64.7362 44.208 64.6545 44.1253 64.5729C44.0633 64.5116 43.9961 64.4502 43.9341 64.3889C43.8463 64.3072 43.7636 64.2205 43.6809 64.1336C43.6189 64.0723 43.5569 64.0059 43.4949 63.9445C43.4123 63.8578 43.3296 63.771 43.2469 63.6841C43.1849 63.6177 43.1229 63.5564 43.066 63.4901C42.9834 63.4032 42.9059 63.3164 42.8232 63.2244C42.7612 63.158 42.7043 63.0917 42.6475 63.0253C42.57 62.9333 42.4873 62.8464 42.4098 62.7546C42.353 62.6882 42.2961 62.6218 42.2393 62.5502C42.1618 62.4583 42.0843 62.3665 42.0068 62.2745C41.9499 62.208 41.8931 62.1365 41.8414 62.0703C41.7639 61.9783 41.6916 61.8812 41.6141 61.7892C41.5624 61.7179 41.5055 61.6514 41.4539 61.5799C41.3815 61.4828 41.3092 61.3857 41.2369 61.2888C41.1852 61.2173 41.1335 61.1457 41.0818 61.0742C41.0095 60.9773 40.9423 60.8802 40.87 60.778C40.8183 60.7064 40.7666 60.6351 40.7201 60.5635C40.653 60.4664 40.5806 60.3643 40.5134 60.2622C40.4618 60.1907 40.4153 60.114 40.3688 60.0425C40.3016 59.9403 40.2344 59.8383 40.1724 59.7412C40.1259 59.6645 40.0794 59.593 40.0329 59.5165C39.9967 59.4552 39.9605 59.399 39.9244 59.3377L61.048 47.2843L48.8533 68.1634C48.7758 68.1174 48.6983 68.0714 48.6208 68.0203C48.5123 67.9692 48.4296 67.9181 48.3521 67.8721ZM39.0666 57.8821C39.0098 57.7749 38.9529 57.6676 38.9013 57.5654C38.8599 57.4837 38.8186 57.4072 38.7824 57.3254C38.7307 57.2181 38.6739 57.1108 38.6222 56.9986C38.5809 56.9168 38.5447 56.8351 38.5085 56.7533C38.4569 56.6462 38.4052 56.5338 38.3587 56.4264C38.3225 56.3449 38.2864 56.258 38.2502 56.1762C38.2037 56.0689 38.1572 55.9567 38.1107 55.8494C38.0745 55.7625 38.0383 55.6808 38.0073 55.5941C37.9608 55.4816 37.9195 55.3743 37.873 55.2621C37.8368 55.1752 37.8058 55.0884 37.7748 55.0015C37.7335 54.8892 37.6921 54.7768 37.6508 54.6695C37.6198 54.5826 37.5888 54.496 37.5578 54.404C37.5164 54.2916 37.4803 54.1793 37.4389 54.0669C37.4079 53.98 37.3821 53.8881 37.3511 53.8014C37.3149 53.6889 37.2787 53.5765 37.2426 53.4643C37.2167 53.3723 37.1857 53.2803 37.1599 53.1884C37.1289 53.0761 37.0927 52.9637 37.0617 52.8513C37.0359 52.7595 37.01 52.6675 36.9842 52.5704C36.9532 52.458 36.9222 52.3457 36.8964 52.2333C36.8705 52.1362 36.8499 52.0444 36.824 51.9473C36.7982 51.8349 36.7672 51.7225 36.7414 51.6103C36.7207 51.5132 36.7 51.4161 36.6793 51.3192C36.6535 51.2068 36.6328 51.0943 36.607 50.9821C36.5863 50.885 36.5657 50.7828 36.5502 50.6806C36.5295 50.5684 36.5088 50.456 36.4882 50.3435C36.4727 50.2415 36.452 50.1393 36.4365 50.0371C36.4158 49.9247 36.4003 49.8125 36.3848 49.7C36.3693 49.5978 36.3538 49.4907 36.3383 49.3885C36.3228 49.2761 36.3073 49.1639 36.2918 49.0565C36.2763 48.9492 36.266 48.8419 36.2556 48.7399C36.2453 48.6275 36.2298 48.5202 36.2195 48.4079C36.2091 48.3006 36.1988 48.1882 36.1885 48.0811C36.1781 47.9738 36.1678 47.8614 36.1626 47.7542C36.1523 47.6418 36.1471 47.5294 36.142 47.417C36.1368 47.3098 36.1265 47.2025 36.1213 47.0901C36.1161 46.9779 36.111 46.8603 36.1058 46.7479C36.1006 46.6408 36.0955 46.5335 36.0955 46.4262C36.0955 46.4006 36.0955 46.3802 36.0955 46.3546H60.4899L39.3663 58.4082C39.3095 58.3111 39.2578 58.214 39.2061 58.112C39.1545 58.0405 39.1079 57.9587 39.0666 57.8821ZM45.7943 35.7007V45.2923H36.0903V35.7007H40.4049H45.7943ZM51.1889 35.7007H56.5783V45.2923H46.8743V35.7007H51.1889ZM78.1257 35.7007V45.2923H68.4371V35.7007H73.8265H78.1257ZM67.3572 35.7007V45.2923H57.6532V35.7007H67.3572ZM57.6842 34.6383C57.9528 32.243 60.0146 30.3737 62.5051 30.3737C64.9957 30.3737 67.0575 32.243 67.3263 34.6383H57.6842ZM68.4371 34.6383H68.4114C68.1375 31.6557 65.5952 29.3113 62.5051 29.3113C59.4152 29.3113 56.8729 31.6557 56.5991 34.6383H56.5732H52.2741C52.5583 29.3011 57.0383 25.0467 62.5051 25.0467C67.9721 25.0467 72.4521 29.3011 72.7362 34.6383H68.4371ZM78.1257 34.6383H73.8111C73.527 28.7138 68.5663 23.9792 62.5051 23.9792C56.444 23.9792 51.4783 28.7138 51.1993 34.6383H46.8846C47.1688 26.3643 54.067 19.7197 62.5103 19.7197C70.9484 19.7197 77.8466 26.3643 78.1257 34.6383ZM88.9097 1.06745V27.5799C85.5769 16.2773 75.0046 7.99308 62.5103 7.99308C49.9798 7.99308 39.3818 16.3232 36.08 27.6719V1.06234H88.9097V1.06745ZM88.9097 45.2923H79.216V35.7007H84.6054H88.9046V45.2923H88.9097Z" fill="white"/>
<path d="M4.304 93.6788C2.9512 93.6788 1.897 93.4123 1.1374 92.8756C0.377902 92.3388 0 91.6707 0 90.8711C0 89.9215 0.491301 89.4448 1.4775 89.4448C1.4926 90.7773 1.742 91.7795 2.2257 92.4589C2.7094 93.1383 3.4538 93.4761 4.4514 93.4761C5.3243 93.4761 6.0347 93.2246 6.5751 92.7217C7.1154 92.2187 7.3837 91.468 7.3837 90.462C7.3837 89.8502 7.2704 89.3547 7.0436 88.9756C6.8169 88.5964 6.4542 88.2511 5.9554 87.9471C5.4566 87.643 4.8028 87.3052 3.998 86.9374C3.5747 86.7347 3.1402 86.5132 2.6981 86.2767C2.2522 86.0402 1.8441 85.755 1.47 85.4209C1.0921 85.0868 0.793599 84.6852 0.566799 84.2085C0.340099 83.7318 0.226799 83.1575 0.226799 82.4781C0.226799 81.2581 0.619701 80.3273 1.4057 79.6891C2.1917 79.051 3.2422 78.732 4.5534 78.732C5.347 78.732 6.0423 78.8408 6.6431 79.0585C7.2439 79.2762 7.7125 79.5615 8.0488 79.9144C8.3851 80.2672 8.5514 80.6538 8.5514 81.0742C8.5514 81.4684 8.4002 81.7761 8.1017 82.0014C7.7994 82.2266 7.4102 82.3392 6.9341 82.3392C6.9341 81.2131 6.7489 80.3648 6.3824 79.7942C6.012 79.2237 5.3999 78.9384 4.5383 78.9384C3.7448 78.9384 3.1137 79.1749 2.6414 79.6516C2.169 80.1283 1.9348 80.8265 1.9348 81.7499C1.9348 82.4143 2.0595 82.951 2.3051 83.3602C2.5507 83.7693 2.921 84.1184 3.4123 84.4074C3.9035 84.7002 4.5345 85.023 5.2979 85.3759C5.9818 85.6874 6.6129 86.014 7.1948 86.3518C7.7767 86.6896 8.2453 87.1213 8.6005 87.643C8.9557 88.1648 9.1333 88.8404 9.1333 89.67C9.1333 90.9049 8.7138 91.8846 7.8712 92.6015C7.021 93.3222 5.8344 93.6788 4.304 93.6788Z" fill="white"/>
<path d="M14.5743 93.6789C13.5201 93.6789 12.6963 93.4124 12.0955 92.8756C11.4947 92.3388 11.1924 91.6031 11.1924 90.6647C11.1924 89.6212 11.5778 88.8405 12.3524 88.3225C13.1233 87.8082 14.2947 87.523 15.8667 87.4666L17.5671 87.4066V85.8826C17.5671 85.1207 17.5256 84.4976 17.4424 84.0096C17.3593 83.5216 17.1817 83.1575 16.9096 82.921C16.6375 82.6846 16.2181 82.5644 15.6588 82.5644C14.8653 82.5644 14.359 82.8084 14.1322 83.2964C13.9055 83.7844 13.7921 84.5539 13.7921 85.5974C13.2178 85.5974 12.7832 85.5035 12.4923 85.3121C12.1975 85.1207 12.0501 84.8091 12.0501 84.3737C12.0501 83.8857 12.2164 83.4953 12.5527 83.2026C12.889 82.9098 13.3311 82.6958 13.8866 82.5607C14.4383 82.4256 15.058 82.358 15.742 82.358C17.0003 82.358 17.9374 82.6245 18.5609 83.1538C19.1844 83.683 19.4943 84.5914 19.4943 85.8826V91.971C19.4943 92.4589 19.5888 92.8005 19.7815 92.9882C19.9742 93.1796 20.2992 93.2735 20.764 93.2735H20.8244V93.4762H17.7296V91.3366H17.6918C17.4727 92.1512 17.0872 92.7442 16.5317 93.1196C15.98 93.4949 15.3263 93.6789 14.5743 93.6789ZM14.9862 93.3936C15.4926 93.3936 15.9385 93.266 16.3277 93.007C16.7169 92.748 17.023 92.4026 17.2384 91.9672C17.4575 91.5318 17.5671 91.0664 17.5671 90.5634V87.6318L16.2559 87.6919C15.0958 87.7444 14.2909 88.0109 13.8488 88.4876C13.4029 88.9643 13.1838 89.7639 13.1838 90.8899C13.18 92.5603 13.7808 93.3936 14.9862 93.3936Z" fill="white"/>
<path d="M21.9766 93.4761V93.2734H22.2449C22.8457 93.2734 23.2765 93.1496 23.5373 92.9056C23.798 92.6616 23.9265 92.26 23.9265 91.7044V79.7905C23.9265 79.2199 23.798 78.8145 23.5373 78.5668C23.2765 78.3228 22.8457 78.1989 22.2449 78.1989H21.9766V78H25.8499V91.6031C25.8499 92.1999 25.9783 92.6278 26.2391 92.8868C26.4998 93.1458 26.9306 93.2734 27.5314 93.2734H27.7997V93.4761H21.9766Z" fill="white"/>
<path d="M28.5371 93.4761V93.2734H28.8054C29.4063 93.2734 29.837 93.1495 30.0978 92.9056C30.3585 92.6616 30.487 92.2599 30.487 91.7044V84.3548C30.487 83.7843 30.3585 83.3789 30.0978 83.1312C29.837 82.8872 29.4063 82.7633 28.8054 82.7633H28.745V82.5606H32.4142V91.6031C32.4142 92.1999 32.5426 92.6278 32.8034 92.8868C33.0641 93.1458 33.4949 93.2734 34.0957 93.2734H34.364V93.4761H28.5371ZM31.3448 80.605C31.084 80.605 30.8686 80.5187 30.6986 80.3497C30.5285 80.1808 30.4416 79.8843 30.4416 79.4639C30.4416 79.0285 30.5285 78.7319 30.6986 78.5668C30.8686 78.4054 31.084 78.3228 31.3448 78.3228C31.5904 78.3228 31.802 78.4054 31.9796 78.5668C32.1572 78.7282 32.2479 79.0285 32.2479 79.4639C32.2479 79.8843 32.1572 80.1808 31.9796 80.3497C31.802 80.5224 31.5904 80.605 31.3448 80.605Z" fill="white"/>
<path d="M35.1992 93.476V93.2733H35.3617C35.989 93.2733 36.4273 93.1382 36.6729 92.8641C36.9186 92.5939 37.0433 92.1059 37.0433 91.3965V84.5987C37.0433 83.9081 36.9261 83.4276 36.6956 83.1648C36.4613 82.8983 36.0343 82.767 35.4033 82.767H35.3013V82.5643H38.9515V84.4786H38.9931C39.1707 83.8555 39.4352 83.3901 39.7829 83.0823C40.1305 82.7782 40.5084 82.5793 40.9089 82.4929C41.3133 82.4066 41.6836 82.3616 42.0274 82.3616C43.2442 82.3616 44.1511 82.6769 44.7444 83.3075C45.3376 83.9381 45.6362 84.9553 45.6362 86.3517V91.4002C45.6362 92.1059 45.7457 92.5939 45.9649 92.8679C46.1841 93.1382 46.5884 93.277 47.1741 93.277H47.2761V93.4797H43.709V85.6572C43.709 84.7751 43.5427 84.0544 43.2064 83.4989C42.8701 82.9434 42.3071 82.6656 41.5135 82.6656C40.8711 82.6656 40.3648 82.8345 39.9982 83.1761C39.6279 83.5139 39.3672 83.9531 39.2085 84.4899C39.0498 85.0266 38.9742 85.5859 38.9742 86.1715V91.4002C38.9742 92.1059 39.0913 92.5939 39.3219 92.8679C39.5524 93.1382 39.9831 93.277 40.6142 93.277H40.7162V93.4797H35.1992V93.476Z" fill="white"/>
<path d="M53.8322 93.6788C52.3018 93.6788 51.1077 93.1908 50.2537 92.2111C49.3997 91.2352 48.9727 89.8614 48.9727 88.0972C48.9727 86.1979 49.3657 84.764 50.1517 83.7993C50.9376 82.8346 52.0599 82.3542 53.5223 82.3542C54.8487 82.3542 55.8916 82.7633 56.6474 83.5779C57.4069 84.3924 57.7848 85.6086 57.7848 87.2226V87.7106H50.9565C50.9717 89.7863 51.1984 91.269 51.6443 92.1511C52.0864 93.0332 52.8384 93.4761 53.8889 93.4761C54.656 93.4761 55.2983 93.2659 55.8274 92.8455C56.3526 92.4251 56.6927 91.802 56.8438 90.9725C57.0063 90.9987 57.131 91.0813 57.2142 91.2164C57.2973 91.3516 57.3389 91.4942 57.3389 91.6443C57.3389 91.9146 57.2104 92.2111 56.9497 92.5302C56.6889 92.8493 56.3035 93.1195 55.7896 93.3447C55.2757 93.5662 54.6257 93.6788 53.8322 93.6788ZM50.9641 87.5116H55.7216C55.7216 85.7324 55.5515 84.4637 55.2076 83.7055C54.8676 82.9473 54.2932 82.5644 53.4845 82.5644C52.6494 82.5644 52.041 82.9435 51.648 83.7055C51.2588 84.4637 51.0321 85.7324 50.9641 87.5116Z" fill="white"/>
<path d="M63.8984 93.4761V93.2734H64.1664C64.7674 93.2734 65.1984 93.1495 65.4594 92.9056C65.7194 92.6616 65.8484 92.2599 65.8484 91.7044V84.3549C65.8484 83.7843 65.7194 83.3789 65.4594 83.1312C65.1984 82.8872 64.7674 82.7633 64.1664 82.7633H64.1064V82.5606H67.7564V84.5951H67.7984C67.8924 84.2423 68.0364 83.8969 68.2284 83.5553C68.4214 83.2175 68.7084 82.9322 69.0904 82.6995C69.4724 82.4705 69.9974 82.3542 70.6694 82.3542C71.3384 82.3542 71.8604 82.4856 72.2264 82.7521C72.5974 83.0186 72.7784 83.3864 72.7784 83.8631C72.7784 84.2723 72.6314 84.6101 72.3364 84.8804C72.0414 85.1506 71.5544 85.2895 70.8704 85.2895C70.8704 84.4487 70.7264 83.8669 70.4394 83.5478C70.1524 83.2288 69.8314 83.0711 69.4754 83.0711C69.0794 83.0711 68.7654 83.21 68.5314 83.4878C68.2964 83.7655 68.1264 84.1259 68.0174 84.5688C67.9074 85.0117 67.8394 85.4659 67.8134 85.9314C67.7864 86.4006 67.7714 86.8322 67.7714 87.2226V91.5993C67.7714 92.1961 67.9004 92.624 68.1604 92.883C68.4214 93.142 68.8524 93.2697 69.4534 93.2697H69.7214V93.4724H63.8984V93.4761Z" fill="white"/>
<path d="M78.9649 93.6789C77.4869 93.6789 76.3269 93.2097 75.4809 92.275C74.6339 91.3366 74.2109 89.914 74.2109 87.9997C74.2109 86.1003 74.6189 84.6852 75.4319 83.7543C76.2439 82.8234 77.4419 82.358 79.0289 82.358C80.5069 82.358 81.6669 82.8234 82.5129 83.7543C83.3589 84.6852 83.7829 86.1003 83.7829 87.9997C83.7829 89.914 83.3709 91.3404 82.5549 92.275C81.7309 93.2134 80.5369 93.6789 78.9649 93.6789ZM79.0059 93.4762C80.0039 93.4762 80.7179 93.0558 81.1489 92.215C81.5799 91.3742 81.7949 89.9666 81.7949 87.9997C81.7949 86.044 81.5799 84.6515 81.1489 83.8144C80.7179 82.9811 79.9959 82.5607 78.9869 82.5607C77.9749 82.5607 77.2569 82.9773 76.8339 83.8144C76.4099 84.6477 76.1989 86.044 76.1989 87.9997C76.1989 89.9666 76.4139 91.3742 76.8449 92.215C77.2719 93.0558 77.9939 93.4762 79.0059 93.4762Z" fill="white"/>
<path d="M85.2791 98.3633V98.1606C86.2351 98.1606 87.0101 98.0893 87.6071 97.9466C88.2001 97.804 88.6721 97.5788 89.0201 97.2748C89.3681 96.9707 89.6631 96.5766 89.9011 96.0924C90.1391 95.6119 90.3881 95.0376 90.6491 94.3732L86.1601 83.8856C85.9821 83.4502 85.8081 83.1574 85.6381 82.9998C85.4681 82.8421 85.2531 82.7671 84.9921 82.7671H84.5801V82.5644H89.5001V82.7671H89.4401C89.0581 82.7671 88.7521 82.8234 88.5291 82.9397C88.3021 83.0561 88.1891 83.2625 88.1891 83.5591C88.1891 83.7918 88.2721 84.1033 88.4341 84.4975L90.1991 88.7541C90.4031 89.257 90.6221 89.8126 90.8571 90.4244C91.0871 91.0363 91.2801 91.573 91.4311 92.0347C91.6091 91.5055 91.7791 91.0025 91.9451 90.5295C92.1071 90.0528 92.2471 89.6399 92.3571 89.2871L93.8531 84.6251C93.9781 84.2572 94.0381 83.9532 94.0381 83.7092C94.0381 83.0861 93.5891 82.7708 92.6861 82.7708H91.8241V82.5681H96.0861V82.7708H95.9241C95.4181 82.7708 95.0511 82.8722 94.8281 83.0749C94.6011 83.2776 94.3781 83.7055 94.1631 84.3586L91.1701 93.5624C90.8571 94.5384 90.5471 95.3416 90.2481 95.9647C89.9461 96.5878 89.5981 97.0758 89.2021 97.4324C88.8051 97.7852 88.3101 98.0292 87.7161 98.1644C87.1231 98.2995 86.3751 98.3671 85.4721 98.3671H85.2791V98.3633Z" fill="white"/>
<path d="M100.489 93.6789C99.4344 93.6789 98.6114 93.4124 98.0104 92.8756C97.4094 92.3388 97.1074 91.6031 97.1074 90.6647C97.1074 89.6212 97.4924 88.8405 98.2674 88.3225C99.0384 87.8082 100.209 87.523 101.781 87.4666L103.481 87.4066V85.8826C103.481 85.1207 103.44 84.4976 103.357 84.0096C103.274 83.5216 103.096 83.1575 102.824 82.921C102.552 82.6846 102.132 82.5644 101.573 82.5644C100.78 82.5644 100.273 82.8084 100.046 83.2964C99.8204 83.7844 99.7064 84.5539 99.7064 85.5974C99.1324 85.5974 98.6974 85.5035 98.4064 85.3121C98.1124 85.1207 97.9644 84.8091 97.9644 84.3737C97.9644 83.8857 98.1314 83.4953 98.4674 83.2026C98.8034 82.9098 99.2454 82.6958 99.8014 82.5607C100.353 82.4256 100.972 82.358 101.656 82.358C102.915 82.358 103.852 82.6245 104.475 83.1538C105.099 83.683 105.409 84.5914 105.409 85.8826V91.971C105.409 92.4589 105.503 92.8005 105.696 92.9882C105.888 93.1796 106.213 93.2735 106.678 93.2735H106.739V93.4762H103.644V91.3366H103.602C103.383 92.1512 102.998 92.7442 102.442 93.1196C101.894 93.4949 101.241 93.6789 100.489 93.6789ZM100.9 93.3936C101.407 93.3936 101.853 93.266 102.242 93.007C102.631 92.748 102.937 92.4026 103.153 91.9672C103.372 91.5318 103.481 91.0664 103.481 90.5634V87.6318L102.17 87.6919C101.01 87.7444 100.205 88.0109 99.7634 88.4876C99.3174 88.9643 99.0984 89.7639 99.0984 90.8899C99.0944 92.5603 99.6954 93.3936 100.9 93.3936Z" fill="white"/>
<path d="M107.891 93.4761V93.2734H108.159C108.76 93.2734 109.19 93.1496 109.451 92.9056C109.712 92.6616 109.84 92.26 109.84 91.7044V79.7905C109.84 79.2199 109.712 78.8145 109.451 78.5668C109.19 78.3228 108.76 78.1989 108.159 78.1989H107.891V78H111.764V91.6031C111.764 92.1999 111.892 92.6278 112.153 92.8868C112.414 93.1458 112.845 93.2734 113.445 93.2734H113.714V93.4761H107.891Z" fill="white"/>
<path d="M119.964 93.6788C118.434 93.6788 117.24 93.1908 116.386 92.2111C115.532 91.2352 115.105 89.8614 115.105 88.0972C115.105 86.1979 115.498 84.764 116.284 83.7993C117.07 82.8346 118.192 82.3542 119.654 82.3542C120.981 82.3542 122.024 82.7633 122.779 83.5779C123.539 84.3924 123.917 85.6086 123.917 87.2226V87.7106H117.089C117.104 89.7863 117.33 91.269 117.776 92.1511C118.218 93.0332 118.97 93.4761 120.021 93.4761C120.788 93.4761 121.43 93.2659 121.959 92.8455C122.485 92.4251 122.825 91.802 122.976 90.9725C123.138 90.9987 123.263 91.0813 123.346 91.2164C123.429 91.3516 123.471 91.4942 123.471 91.6443C123.471 91.9146 123.342 92.2111 123.082 92.5302C122.821 92.8493 122.436 93.1195 121.922 93.3447C121.408 93.5662 120.758 93.6788 119.964 93.6788ZM117.092 87.5116H121.85C121.85 85.7324 121.68 84.4637 121.336 83.7055C120.996 82.9473 120.421 82.5644 119.613 82.5644C118.778 82.5644 118.169 82.9435 117.776 83.7055C117.391 84.4637 117.164 85.7324 117.092 87.5116Z" fill="white"/>
<path d="M27.4287 101.047C28.6039 101.047 29.4806 101.348 30.0512 101.944C30.6255 102.541 30.9127 103.487 30.9127 104.775V112.064H30.0323L29.8055 110.232H29.764C29.3937 110.844 28.944 111.336 28.4112 111.708C27.8784 112.079 27.134 112.267 26.1779 112.267C25.2068 112.267 24.4359 112.008 23.8616 111.494C23.2872 110.979 23 110.225 23 109.234C23 108.16 23.4119 107.338 24.2394 106.772C25.067 106.201 26.28 105.882 27.8784 105.814L29.7451 105.713V104.959C29.7451 103.885 29.5486 103.131 29.1518 102.688C28.7551 102.248 28.1693 102.027 27.3871 102.027C26.8695 102.027 26.3631 102.098 25.8719 102.241C25.3806 102.384 24.8932 102.59 24.417 102.864L24.0278 101.926C24.5191 101.667 25.0519 101.456 25.6262 101.295C26.2006 101.134 26.8014 101.047 27.4287 101.047ZM29.7451 106.606L28.0446 106.689C26.7599 106.741 25.8001 106.978 25.1652 107.391C24.5304 107.804 24.213 108.427 24.213 109.253C24.213 109.917 24.4095 110.424 24.7987 110.769C25.1879 111.114 25.7245 111.287 26.4084 111.287C27.4589 111.287 28.2789 110.968 28.8684 110.33C29.4541 109.692 29.7489 108.795 29.7489 107.642V106.606H29.7451Z" fill="white"/>
<path d="M38.2921 112.266C36.7881 112.266 35.6281 111.782 34.8081 110.81C33.9881 109.838 33.5762 108.472 33.5762 106.707C33.5762 105.499 33.784 104.47 34.1997 103.622C34.6153 102.774 35.1935 102.128 35.9303 101.689C36.6672 101.246 37.5288 101.028 38.515 101.028C39.0063 101.028 39.4711 101.077 39.9094 101.171C40.3477 101.265 40.7369 101.396 41.077 101.557L40.7483 102.575C40.0227 102.237 39.267 102.064 38.4735 102.064C37.2831 102.064 36.3725 102.477 35.7376 103.307C35.1028 104.136 34.7854 105.262 34.7854 106.689C34.7854 108.047 35.0688 109.147 35.6356 109.988C36.2024 110.829 37.0791 111.249 38.2694 111.249C38.7871 111.249 39.2708 111.197 39.7129 111.088C40.155 110.979 40.5631 110.836 40.9334 110.66V111.7C40.6047 111.876 40.223 112.015 39.7847 112.116C39.3539 112.218 38.8551 112.266 38.2921 112.266Z" fill="white"/>
<path d="M47.0068 101.047C48.182 101.047 49.0548 101.348 49.6292 101.944C50.2036 102.541 50.4908 103.487 50.4908 104.775V112.064H49.6103L49.3836 110.232H49.342C48.9717 110.844 48.522 111.336 47.9892 111.708C47.4564 112.079 46.712 112.267 45.756 112.267C44.7848 112.267 44.014 112.008 43.4396 111.494C42.8652 110.979 42.5781 110.225 42.5781 109.234C42.5781 108.16 42.9899 107.338 43.8175 106.772C44.645 106.201 45.858 105.882 47.4564 105.814L49.3231 105.713V104.959C49.3231 103.885 49.1266 103.131 48.7299 102.688C48.3331 102.248 47.7474 102.027 46.9652 102.027C46.4475 102.027 45.9412 102.098 45.4499 102.241C44.9587 102.384 44.4712 102.59 43.9951 102.864L43.6059 101.926C44.0971 101.667 44.6299 101.456 45.2043 101.295C45.7787 101.13 46.3795 101.047 47.0068 101.047ZM49.3231 106.606L47.6227 106.689C46.3379 106.741 45.3781 106.978 44.7433 107.391C44.1085 107.804 43.791 108.427 43.791 109.253C43.791 109.917 43.9875 110.424 44.3767 110.769C44.766 111.114 45.3025 111.287 45.9865 111.287C47.037 111.287 47.857 110.968 48.4465 110.33C49.0322 109.692 49.3269 108.795 49.3269 107.642V106.606H49.3231Z" fill="white"/>
<path d="M57.4207 112.267C56.0528 112.267 55.0023 111.801 54.2654 110.87C53.5285 109.94 53.1582 108.573 53.1582 106.768C53.1582 104.895 53.5437 103.468 54.3183 102.492C55.0892 101.517 56.1586 101.025 57.5265 101.025C58.3729 101.025 59.0644 101.22 59.5972 101.614C60.13 102.008 60.5344 102.504 60.8064 103.101H60.8896C60.8631 102.774 60.8404 102.414 60.8291 102.019C60.814 101.625 60.8102 101.28 60.8102 100.98V96.5805H61.9779V112.057H61.0332L60.848 110.184H60.8027C60.5306 110.754 60.1225 111.242 59.5821 111.651C59.0418 112.064 58.3238 112.267 57.4207 112.267ZM57.6058 111.272C58.781 111.272 59.6086 110.893 60.0847 110.131C60.5646 109.369 60.8027 108.277 60.8027 106.854V106.651C60.8027 105.158 60.5608 104.013 60.0734 103.221C59.5897 102.425 58.7772 102.031 57.6436 102.031C56.578 102.031 55.7656 102.44 55.2025 103.262C54.6433 104.084 54.3637 105.255 54.3637 106.775C54.3637 108.254 54.6319 109.377 55.1647 110.135C55.6976 110.889 56.51 111.272 57.6058 111.272Z" fill="white"/>
<path d="M69.206 101.028C70.0789 101.028 70.8195 101.242 71.4203 101.67C72.0212 102.098 72.4708 102.683 72.7731 103.43C73.0754 104.177 73.2228 105.033 73.2228 105.998V106.812H65.926C65.9411 108.239 66.2585 109.335 66.8783 110.101C67.5018 110.866 68.3935 111.253 69.5536 111.253C70.196 111.253 70.7553 111.2 71.2352 111.092C71.7151 110.983 72.2328 110.791 72.792 110.521V111.58C72.2857 111.824 71.7793 112 71.2767 112.109C70.7704 112.218 70.1847 112.27 69.5121 112.27C67.9665 112.27 66.7838 111.775 65.9562 110.784C65.1287 109.793 64.7168 108.442 64.7168 106.73C64.7168 105.63 64.8944 104.65 65.2496 103.787C65.6048 102.924 66.1149 102.248 66.7762 101.76C67.4413 101.272 68.25 101.028 69.206 101.028ZM69.206 102.004C68.2764 102.004 67.5244 102.338 66.9501 103.003C66.3757 103.667 66.0394 104.613 65.9449 105.833H72.0136C71.9985 104.692 71.768 103.768 71.3183 103.063C70.8686 102.357 70.162 102.004 69.206 102.004Z" fill="white"/>
<path d="M86.755 101.028C87.779 101.028 88.577 101.332 89.143 101.944C89.71 102.556 89.994 103.521 89.994 104.834V112.064H88.845V104.895C88.845 103.919 88.645 103.198 88.24 102.736C87.836 102.275 87.281 102.046 86.57 102.046C85.599 102.046 84.855 102.35 84.337 102.95C83.8192 103.554 83.5584 104.489 83.5584 105.75V112.064H82.4097V104.895C82.4097 103.919 82.2056 103.198 81.7938 102.736C81.3819 102.275 80.8226 102.046 80.1122 102.046C79.1562 102.046 78.4193 102.361 77.8979 102.991C77.3802 103.622 77.1194 104.598 77.1194 105.912V112.06H75.9707V101.227H76.8927L77.0779 102.939H77.161C77.4217 102.41 77.811 101.959 78.3286 101.584C78.8463 101.212 79.5038 101.025 80.2974 101.025C81.0493 101.025 81.6804 101.193 82.1943 101.535C82.7082 101.873 83.071 102.383 83.2902 103.063H83.3733C83.6718 102.41 84.114 101.91 84.696 101.558C85.278 101.205 85.962 101.028 86.755 101.028Z" fill="white"/>
<path d="M91.5732 101.231H92.8432L95.2422 107.972C95.4612 108.569 95.6472 109.102 95.7942 109.571C95.9452 110.041 96.0622 110.457 96.1422 110.825H96.2022C96.2852 110.514 96.3992 110.112 96.5502 109.624C96.7012 109.136 96.8782 108.592 97.0832 107.995L99.4402 101.235H100.71L96.0962 114.004C95.7562 114.954 95.3372 115.69 94.8462 116.215C94.3542 116.737 93.6972 117 92.8772 117C92.6162 117 92.3892 116.981 92.1892 116.94C91.9932 116.898 91.8042 116.85 91.6262 116.797V115.821C91.9552 115.941 92.3212 116.005 92.7332 116.005C93.2812 116.005 93.7192 115.829 94.0562 115.476C94.3922 115.123 94.6942 114.586 94.9662 113.866L95.6012 112.034L91.5732 101.231Z" fill="white"/>
</svg>
