<svg width="163" height="40" viewBox="0 0 163 40" fill="none" xmlns="http://www.w3.org/2000/svg">
<path d="M30 19.2709C30 19.117 29.9972 18.963 29.9915 18.8091V-0.00012207H0V24.8176V25.1087C0 33.3197 6.72773 39.9999 14.9972 39.9999C23.168 39.9999 29.8337 33.4764 29.9887 25.4025H29.9915V25.1115V24.8204V19.5647H30V19.2709ZM27.0519 18.9798C26.894 12.5151 21.553 7.30136 15.0028 7.30136C8.45265 7.30136 3.11161 12.5151 2.95378 18.9798H0.600338C0.755355 11.225 7.15896 4.96455 15.0056 4.96455C22.8016 4.96455 29.1685 11.1438 29.4053 18.8287V18.9798H27.0519ZM24.1178 18.9798H24.1122C23.9572 14.1243 19.9324 10.2203 15.0028 10.2203C10.0761 10.2203 6.0513 14.1243 5.89346 18.9798H5.88501H3.5372C3.69504 12.837 8.77678 7.88626 15 7.88626C21.226 7.88626 26.3078 12.837 26.4628 18.9798H24.1178ZM29.394 25.618C29.3912 25.6796 29.3912 25.744 29.3856 25.8055C29.3828 25.8643 29.3799 25.9259 29.3743 25.9846C29.3715 26.0462 29.3658 26.1078 29.363 26.1694C29.3574 26.2281 29.3517 26.2897 29.3489 26.3485C29.3433 26.4072 29.3377 26.4688 29.332 26.5276C29.3264 26.5891 29.3179 26.6479 29.3123 26.7095C29.3067 26.7682 29.2982 26.827 29.2926 26.883C29.2841 26.9446 29.2756 27.0061 29.2672 27.0649C29.2587 27.1209 29.2503 27.1796 29.2418 27.2356C29.2334 27.2972 29.2221 27.3587 29.2136 27.4203C29.2052 27.4763 29.1967 27.5323 29.1855 27.5882C29.1742 27.6498 29.1629 27.7114 29.1516 27.7729C29.1404 27.8289 29.1319 27.8821 29.1206 27.9381C29.1094 27.9996 29.0953 28.0612 29.0812 28.1228C29.0699 28.1759 29.0586 28.2291 29.0473 28.2823C29.0333 28.3438 29.0192 28.4054 29.0023 28.467C28.9882 28.5202 28.9769 28.5705 28.9628 28.6237C28.9459 28.6853 28.929 28.7468 28.9149 28.8084C28.9008 28.8588 28.8867 28.912 28.8726 28.9623C28.8557 29.0239 28.836 29.0855 28.8191 29.147C28.805 29.1974 28.788 29.2478 28.774 29.2982C28.7542 29.3597 28.7345 29.4213 28.7148 29.4829C28.6979 29.5332 28.6838 29.5808 28.6669 29.6284C28.6471 29.69 28.6246 29.7515 28.602 29.8131C28.5851 29.8607 28.5682 29.9082 28.5513 29.9586C28.5287 30.0202 28.5062 30.0818 28.4837 30.1405C28.4667 30.1881 28.447 30.2357 28.4301 30.2833C28.4076 30.3448 28.3822 30.4064 28.3568 30.4652C28.3371 30.5127 28.3202 30.5575 28.3005 30.6051C28.2751 30.6667 28.2497 30.7254 28.2215 30.787C28.2018 30.8318 28.1821 30.8766 28.1623 30.9241C28.1342 30.9829 28.1088 31.0445 28.0806 31.1032C28.0609 31.148 28.0383 31.1928 28.0186 31.2376C27.9904 31.2963 27.9622 31.3551 27.9312 31.4167C27.9087 31.4615 27.8861 31.5034 27.8664 31.5482C27.8354 31.607 27.8072 31.6657 27.7762 31.7217C27.7537 31.7665 27.7311 31.8085 27.7058 31.8533C27.6776 31.9064 27.6466 31.9596 27.6184 32.0156L16.0964 25.4109H29.4025C29.4025 25.4249 29.4025 25.4361 29.4025 25.4501C29.3997 25.5005 29.3968 25.5593 29.394 25.618ZM27.1843 32.7348C27.1477 32.7908 27.1139 32.8467 27.0772 32.8999C27.0519 32.9391 27.0237 32.9811 26.9983 33.0203C26.9617 33.0762 26.925 33.1294 26.8856 33.1854C26.8574 33.2246 26.8292 33.2637 26.8038 33.3029C26.7644 33.3561 26.7277 33.4093 26.6883 33.4652C26.6601 33.5044 26.6319 33.5436 26.6037 33.5828C26.5643 33.6359 26.5248 33.6891 26.4853 33.7423C26.4572 33.7815 26.4262 33.8179 26.398 33.857C26.3585 33.9102 26.3162 33.9606 26.2768 34.011C26.2458 34.0473 26.2148 34.0865 26.1866 34.1229C26.1443 34.1733 26.102 34.2236 26.0598 34.274C26.0287 34.3104 25.9977 34.3468 25.9667 34.386C25.9245 34.4363 25.8822 34.4867 25.8371 34.5343C25.8061 34.5707 25.7723 34.607 25.7413 34.6434C25.6962 34.691 25.6539 34.7414 25.6088 34.789C25.575 34.8253 25.544 34.8589 25.5101 34.8953C25.4651 34.9429 25.42 34.9905 25.3749 35.038C25.341 35.0716 25.3072 35.108 25.2734 35.1416C25.2283 35.1892 25.1804 35.2339 25.1353 35.2815C25.1015 35.3151 25.0648 35.3487 25.031 35.3823C24.9831 35.427 24.938 35.4718 24.8901 35.5166C24.8534 35.5502 24.8196 35.5838 24.783 35.6145C24.7351 35.6593 24.6871 35.7013 24.6392 35.7461C24.6026 35.7797 24.566 35.8104 24.5293 35.844C24.4814 35.886 24.4307 35.9308 24.3828 35.9728C24.3461 36.0063 24.3067 36.0371 24.2672 36.0679C24.2165 36.1099 24.1685 36.1491 24.1178 36.191C24.0784 36.2218 24.0389 36.2526 24.0023 36.2834C23.9515 36.3226 23.9008 36.3646 23.8501 36.4037C23.8106 36.4345 23.7711 36.4653 23.7317 36.4933C23.6809 36.5325 23.6302 36.5716 23.5767 36.608C23.5372 36.6388 23.4949 36.6668 23.4555 36.6976C23.4047 36.734 23.3512 36.7731 23.2976 36.8095C23.2554 36.8375 23.2131 36.8683 23.1708 36.8963C23.1173 36.9327 23.0665 36.969 23.013 37.0026C22.9707 37.0306 22.9284 37.0586 22.8861 37.0866C22.8326 37.1202 22.779 37.1566 22.7255 37.1901C22.6832 37.2181 22.6381 37.2433 22.5958 37.2713C22.5536 37.2965 22.5113 37.3245 22.469 37.3497L15.8174 25.9091L27.3393 32.5137C27.3196 32.5473 27.2999 32.5781 27.2802 32.6117C27.2351 32.6508 27.2097 32.6928 27.1843 32.7348ZM21.677 37.7834C21.6206 37.8114 21.5671 37.8422 21.5107 37.8702C21.4628 37.8954 21.4149 37.9178 21.367 37.9402C21.3106 37.9681 21.2542 37.9961 21.1979 38.0213C21.1499 38.0437 21.102 38.0661 21.0513 38.0885C20.9949 38.1137 20.9386 38.1416 20.8822 38.1668C20.8315 38.1892 20.7835 38.2088 20.7328 38.2312C20.6764 38.2564 20.6201 38.2816 20.5637 38.304C20.513 38.3264 20.4622 38.3459 20.4115 38.3655C20.3551 38.3879 20.2988 38.4131 20.2396 38.4355C20.1888 38.4551 20.1353 38.4747 20.0846 38.4943C20.0282 38.5167 19.969 38.5362 19.9126 38.5586C19.8591 38.5782 19.8083 38.595 19.7548 38.6146C19.6984 38.6342 19.6392 38.6538 19.5829 38.6734C19.5293 38.6902 19.4758 38.707 19.4222 38.7265C19.3658 38.7461 19.3067 38.7629 19.2503 38.7825C19.1967 38.7993 19.1404 38.8161 19.084 38.8301C19.0276 38.8469 18.9684 38.8637 18.9121 38.8805C18.8557 38.8973 18.7993 38.9113 18.743 38.9252C18.6866 38.942 18.6274 38.956 18.5682 38.9728C18.5118 38.9868 18.4526 39.0008 18.3963 39.0148C18.3399 39.0288 18.2807 39.0428 18.2244 39.0568C18.1652 39.0708 18.106 39.082 18.0468 39.096C17.9904 39.1072 17.9312 39.1212 17.8749 39.1323C17.8157 39.1435 17.7565 39.1547 17.6945 39.1659C17.6381 39.1771 17.5817 39.1883 17.5225 39.1995C17.4605 39.2107 17.4014 39.2191 17.3393 39.2303C17.283 39.2387 17.2266 39.2499 17.1674 39.2583C17.1054 39.2667 17.0434 39.2751 16.9786 39.2835C16.9222 39.2919 16.8658 39.3003 16.8095 39.3059C16.7446 39.3143 16.6798 39.3198 16.615 39.3282C16.5614 39.3338 16.5051 39.3422 16.4515 39.3478C16.3839 39.3534 16.3134 39.359 16.2458 39.3674C16.195 39.373 16.1415 39.3758 16.0908 39.3814C16.0175 39.387 15.947 39.3898 15.8737 39.3954C15.8258 39.3982 15.7751 39.401 15.7272 39.4038C15.6511 39.4066 15.5722 39.4094 15.4961 39.4122C15.451 39.415 15.4059 39.415 15.3608 39.4178C15.3354 39.4178 15.31 39.4178 15.2875 39.4178V26.2057L21.9391 37.6463C21.8968 37.6687 21.8546 37.6939 21.8123 37.7163C21.77 37.7359 21.7221 37.7582 21.677 37.7834ZM14.4927 39.4066C14.4166 39.4038 14.3377 39.401 14.2616 39.3982C14.2136 39.3954 14.1629 39.3926 14.115 39.3898C14.0417 39.3842 13.9684 39.3814 13.898 39.3758C13.8444 39.373 13.7937 39.3674 13.743 39.3618C13.6753 39.3562 13.6048 39.3506 13.5372 39.3422C13.4808 39.3366 13.4273 39.331 13.3737 39.3226C13.3089 39.3143 13.2441 39.3087 13.1793 39.3003C13.1229 39.2947 13.0665 39.2835 13.0101 39.2779C12.9481 39.2695 12.8833 39.2611 12.8213 39.2527C12.7649 39.2443 12.7086 39.2331 12.6494 39.2247C12.5874 39.2135 12.5282 39.2051 12.4662 39.1939C12.4098 39.1827 12.3534 39.1715 12.2943 39.1603C12.2351 39.1491 12.1731 39.1379 12.1139 39.1267C12.0575 39.1156 11.9983 39.1016 11.9419 39.0904C11.8828 39.0792 11.8236 39.0652 11.7644 39.0512C11.708 39.0372 11.6488 39.0232 11.5924 39.0092C11.5361 38.9952 11.4769 38.9812 11.4205 38.9672C11.3613 38.9532 11.305 38.9364 11.2458 38.9197C11.1894 38.9057 11.133 38.8889 11.0767 38.8749C11.0175 38.8581 10.9611 38.8413 10.9047 38.8245C10.8484 38.8077 10.7948 38.7937 10.7384 38.7769C10.6793 38.7601 10.6229 38.7405 10.5665 38.721C10.513 38.7042 10.4594 38.6874 10.4059 38.6678C10.3467 38.6482 10.2903 38.6286 10.2339 38.609C10.1804 38.5894 10.1297 38.5726 10.0761 38.553C10.0197 38.5334 9.96054 38.5111 9.90417 38.4887C9.85344 38.4691 9.79989 38.4495 9.74916 38.4299C9.69279 38.4075 9.63642 38.3851 9.57723 38.3599C9.52649 38.3403 9.47576 38.318 9.42503 38.2984C9.36866 38.276 9.31229 38.2508 9.25592 38.2256C9.20519 38.2032 9.15445 38.1836 9.10654 38.1612C9.05017 38.1361 8.9938 38.1109 8.93743 38.0829C8.88951 38.0605 8.8416 38.0381 8.79087 38.0157C8.7345 37.9877 8.67813 37.9625 8.62176 37.9346C8.57384 37.9122 8.52593 37.887 8.47802 37.8646C8.42165 37.8366 8.36809 37.8086 8.31172 37.7778C8.26381 37.7526 8.21871 37.7303 8.1708 37.7051C8.12852 37.6827 8.08625 37.6603 8.04397 37.6351L14.6956 26.1945V39.4066C14.6702 39.4066 14.6449 39.4066 14.6223 39.4066C14.5829 39.4122 14.5378 39.4094 14.4927 39.4066ZM7.28298 37.1901C7.22943 37.1566 7.17587 37.1202 7.12232 37.0866C7.08005 37.0586 7.03777 37.0306 6.99549 37.0026C6.94194 36.9662 6.89121 36.9327 6.83766 36.8963C6.79538 36.8683 6.7531 36.8403 6.71082 36.8095C6.65727 36.7731 6.60654 36.734 6.55299 36.6976C6.51353 36.6696 6.47125 36.6388 6.43179 36.608C6.38106 36.5689 6.32751 36.5297 6.27678 36.4933C6.23732 36.4625 6.19786 36.4345 6.1584 36.4037C6.10767 36.3646 6.05693 36.3254 6.0062 36.2834C5.96674 36.2526 5.92728 36.2218 5.89064 36.191C5.83991 36.1491 5.792 36.1099 5.74126 36.0679C5.7018 36.0371 5.66516 36.0035 5.6257 35.9728C5.57497 35.9308 5.52706 35.8888 5.47914 35.844C5.4425 35.8104 5.40586 35.7797 5.36922 35.7461C5.32131 35.7013 5.27339 35.6593 5.22548 35.6145C5.18884 35.581 5.15502 35.5474 5.11838 35.5166C5.07046 35.4718 5.02255 35.427 4.97745 35.3823C4.94363 35.3487 4.90699 35.3151 4.87317 35.2815C4.82525 35.2367 4.78016 35.1892 4.73506 35.1416C4.70124 35.108 4.66742 35.0716 4.6336 35.038C4.5885 34.9905 4.54341 34.9429 4.49831 34.8953C4.46449 34.8589 4.43067 34.8253 4.39966 34.789C4.35457 34.7414 4.31229 34.6938 4.26719 34.6434C4.23337 34.607 4.20237 34.5707 4.17136 34.5343C4.12909 34.4839 4.08399 34.4363 4.04171 34.386C4.01071 34.3496 3.97971 34.3132 3.9487 34.274C3.90643 34.2236 3.86415 34.1733 3.82187 34.1229C3.79087 34.0865 3.75986 34.0473 3.73168 34.011C3.6894 33.9606 3.64994 33.9074 3.60767 33.857C3.57948 33.8179 3.54848 33.7815 3.52029 33.7423C3.48083 33.6891 3.44138 33.6359 3.40192 33.5828C3.37373 33.5436 3.34555 33.5044 3.31736 33.4652C3.2779 33.4121 3.24126 33.3589 3.2018 33.3029C3.17362 33.2637 3.14543 33.2246 3.12007 33.1854C3.08343 33.1322 3.04397 33.0762 3.00733 33.0203C2.97914 32.9811 2.95378 32.9391 2.92841 32.8999C2.89177 32.8439 2.85513 32.788 2.82131 32.7348C2.79594 32.6928 2.77058 32.6536 2.74521 32.6117C2.72548 32.5781 2.70575 32.5473 2.68602 32.5137L14.208 25.9091L7.55637 37.3497C7.51409 37.3245 7.47182 37.2993 7.42954 37.2713C7.37035 37.2433 7.32525 37.2153 7.28298 37.1901ZM2.21815 31.7161C2.18715 31.6574 2.15614 31.5986 2.12796 31.5426C2.10541 31.4978 2.08286 31.4559 2.06313 31.4111C2.03495 31.3523 2.00395 31.2935 1.97576 31.232C1.95321 31.1872 1.93348 31.1424 1.91375 31.0976C1.88557 31.0389 1.85738 30.9773 1.83202 30.9185C1.81229 30.8738 1.79256 30.8262 1.77283 30.7814C1.74746 30.7226 1.7221 30.6611 1.69673 30.6023C1.677 30.5547 1.65727 30.5099 1.64036 30.4624C1.61499 30.4008 1.59245 30.342 1.56708 30.2805C1.54735 30.2329 1.53044 30.1853 1.51353 30.1377C1.49098 30.0762 1.46843 30.0146 1.44589 29.9558C1.42897 29.9082 1.41206 29.8607 1.39515 29.8103C1.3726 29.7487 1.35287 29.6872 1.33033 29.6256C1.31342 29.578 1.29932 29.5276 1.28241 29.4801C1.26268 29.4185 1.24295 29.3569 1.22322 29.2954C1.20913 29.245 1.19222 29.1946 1.17813 29.1442C1.16122 29.0827 1.14149 29.0211 1.12458 28.9595C1.11048 28.9092 1.09639 28.8588 1.0823 28.8056C1.06539 28.744 1.04848 28.6825 1.03439 28.6209C1.02029 28.5677 1.00902 28.5174 0.994927 28.4642C0.980834 28.4026 0.963923 28.341 0.949831 28.2795C0.938557 28.2263 0.927283 28.1731 0.916009 28.12C0.901917 28.0584 0.890643 27.9968 0.87655 27.9353C0.865276 27.8821 0.854002 27.8261 0.845547 27.7701C0.834273 27.7086 0.822999 27.647 0.811725 27.5854C0.80327 27.5295 0.791996 27.4735 0.78354 27.4175C0.772266 27.3559 0.763811 27.2944 0.755355 27.2328C0.7469 27.1768 0.738444 27.1181 0.729989 27.0621C0.721533 27.0005 0.713078 26.939 0.704622 26.8802C0.696167 26.8214 0.69053 26.7626 0.684893 26.7067C0.679256 26.6451 0.6708 26.5863 0.665163 26.5248C0.659526 26.466 0.65389 26.4044 0.648253 26.3457C0.642616 26.2869 0.636979 26.2253 0.63416 26.1666C0.628523 26.105 0.625705 26.0434 0.622886 25.9818C0.620068 25.9231 0.614431 25.8643 0.611612 25.8027C0.608794 25.7412 0.605975 25.6768 0.603157 25.6152C0.600338 25.5565 0.59752 25.4977 0.59752 25.4389C0.59752 25.4249 0.59752 25.4137 0.59752 25.3997H13.9036L2.38162 32.0044C2.35062 31.9512 2.32244 31.898 2.29425 31.8421C2.26607 31.8029 2.2407 31.7581 2.21815 31.7161ZM5.88782 19.5619V24.8176H0.594701V19.5619H2.94814H5.88782ZM8.83033 19.5619H11.77V24.8176H6.47689V19.5619H8.83033ZM23.5231 19.5619V24.8176H18.2384V19.5619H21.1781H23.5231ZM17.6494 19.5619V24.8176H12.3563V19.5619H17.6494ZM12.3732 18.9798C12.5197 17.6673 13.6443 16.643 15.0028 16.643C16.3613 16.643 17.4859 17.6673 17.6325 18.9798H12.3732ZM18.2384 18.9798H18.2244C18.075 17.3455 16.6883 16.0609 15.0028 16.0609C13.3174 16.0609 11.9307 17.3455 11.7813 18.9798H11.7672H9.42221C9.57723 16.0553 12.0209 13.7241 15.0028 13.7241C17.9848 13.7241 20.4284 16.0553 20.5834 18.9798H18.2384ZM23.5231 18.9798H21.1697C21.0147 15.7335 18.3089 13.1392 15.0028 13.1392C11.6967 13.1392 8.98816 15.7335 8.83596 18.9798H6.48253C6.63754 14.4461 10.4002 10.8052 15.0056 10.8052C19.6082 10.8052 23.3709 14.4461 23.5231 18.9798ZM29.4053 0.58478V15.1122C27.5874 8.91893 21.8207 4.37965 15.0056 4.37965C8.1708 4.37965 2.39008 8.94412 0.589064 15.1626V0.581982H29.4053V0.58478ZM29.4053 24.8176H24.1178V19.5619H27.0575H29.4025V24.8176H29.4053Z" fill="white"/>
<path d="M43.387 16.6787C42.0342 16.6787 40.98 16.4122 40.2204 15.8755C39.4609 15.3387 39.083 14.6706 39.083 13.871C39.083 12.9214 39.5743 12.4447 40.5605 12.4447C40.5756 13.7772 40.825 14.7794 41.3087 15.4588C41.7924 16.1382 42.5368 16.476 43.5344 16.476C44.4073 16.476 45.1177 16.2245 45.6581 15.7216C46.1984 15.2186 46.4667 14.4679 46.4667 13.4619C46.4667 12.8501 46.3534 12.3546 46.1266 11.9755C45.8999 11.5963 45.5372 11.251 45.0384 10.947C44.5396 10.6429 43.8858 10.3051 43.081 9.93723C42.6577 9.73454 42.2232 9.51308 41.7811 9.2766C41.3352 9.04012 40.9271 8.75485 40.553 8.42078C40.1751 8.0867 39.8766 7.68507 39.6498 7.20836C39.4231 6.73165 39.3098 6.15735 39.3098 5.47795C39.3098 4.25802 39.7027 3.32713 40.4887 2.68901C41.2747 2.0509 42.3252 1.73184 43.6364 1.73184C44.43 1.73184 45.1253 1.8407 45.7261 2.05841C46.3269 2.27612 46.7955 2.56139 47.1318 2.91423C47.4681 3.26707 47.6344 3.65369 47.6344 4.0741C47.6344 4.46823 47.4832 4.77602 47.1847 5.00124C46.8824 5.22645 46.4932 5.33906 46.0171 5.33906C46.0171 4.21298 45.8319 3.36466 45.4654 2.79412C45.095 2.22357 44.4829 1.93829 43.6213 1.93829C42.8278 1.93829 42.1967 2.17477 41.7244 2.65148C41.252 3.12819 41.0178 3.82636 41.0178 4.74975C41.0178 5.41413 41.1425 5.9509 41.3881 6.36004C41.6337 6.76919 42.004 7.11827 42.4953 7.4073C42.9865 7.70008 43.6175 8.02289 44.3809 8.37573C45.0648 8.68728 45.6959 9.01384 46.2778 9.35167C46.8597 9.68949 47.3283 10.1212 47.6835 10.6429C48.0387 11.1647 48.2163 11.8403 48.2163 12.6699C48.2163 13.9048 47.7968 14.8845 46.9542 15.6014C46.104 16.3221 44.9174 16.6787 43.387 16.6787Z" fill="white"/>
<path d="M53.6573 16.6788C52.6031 16.6788 51.7793 16.4123 51.1785 15.8755C50.5777 15.3387 50.2754 14.603 50.2754 13.6646C50.2754 12.6211 50.6608 11.8404 51.4354 11.3224C52.2063 10.8081 53.3777 10.5229 54.9497 10.4665L56.6501 10.4065V8.88251C56.6501 8.12053 56.6086 7.49743 56.5254 7.00946C56.4423 6.5215 56.2647 6.1574 55.9926 5.92092C55.7205 5.68444 55.3011 5.56432 54.7418 5.56432C53.9483 5.56432 53.442 5.80831 53.2152 6.29628C52.9885 6.78425 52.8751 7.55374 52.8751 8.59724C52.3008 8.59724 51.8662 8.5034 51.5753 8.31197C51.2805 8.12053 51.1331 7.80898 51.1331 7.37357C51.1331 6.8856 51.2994 6.49522 51.6357 6.20244C51.972 5.90966 52.4141 5.6957 52.9696 5.56057C53.5213 5.42544 54.141 5.35788 54.825 5.35788C56.0833 5.35788 57.0204 5.62438 57.6439 6.15364C58.2674 6.6829 58.5773 7.59127 58.5773 8.88251V14.9709C58.5773 15.4588 58.6718 15.8004 58.8645 15.9881C59.0572 16.1795 59.3822 16.2734 59.847 16.2734H59.9074V16.4761H56.8126V14.3365H56.7748C56.5557 15.1511 56.1702 15.7441 55.6147 16.1195C55.063 16.4948 54.4093 16.6788 53.6573 16.6788ZM54.0692 16.3935C54.5756 16.3935 55.0215 16.2659 55.4107 16.0069C55.7999 15.7479 56.106 15.4025 56.3214 14.9671C56.5405 14.5317 56.6501 14.0663 56.6501 13.5633V10.6317L55.3389 10.6918C54.1788 10.7443 53.3739 11.0108 52.9318 11.4875C52.4859 11.9642 52.2668 12.7638 52.2668 13.8898C52.263 15.5602 52.8638 16.3935 54.0692 16.3935Z" fill="white"/>
<path d="M61.0596 16.476V16.2733H61.3279C61.9287 16.2733 62.3595 16.1495 62.6203 15.9055C62.881 15.6615 63.0095 15.2599 63.0095 14.7043V2.79035C63.0095 2.2198 62.881 1.81441 62.6203 1.56668C62.3595 1.32269 61.9287 1.19882 61.3279 1.19882H61.0596V0.999878H64.9329V14.603C64.9329 15.1998 65.0613 15.6277 65.3221 15.8867C65.5828 16.1457 66.0136 16.2733 66.6144 16.2733H66.8827V16.476H61.0596Z" fill="white"/>
<path d="M67.6201 16.476V16.2733H67.8884C68.4893 16.2733 68.92 16.1494 69.1808 15.9055C69.4415 15.6615 69.57 15.2598 69.57 14.7043V7.35471C69.57 6.78417 69.4415 6.37877 69.1808 6.13104C68.92 5.88705 68.4893 5.76318 67.8884 5.76318H67.828V5.56049H71.4972V14.603C71.4972 15.1998 71.6256 15.6277 71.8864 15.8867C72.1471 16.1457 72.5779 16.2733 73.1787 16.2733H73.447V16.476H67.6201ZM70.4278 3.60486C70.167 3.60486 69.9516 3.51853 69.7816 3.34961C69.6115 3.1807 69.5246 2.88417 69.5246 2.46376C69.5246 2.02834 69.6115 1.73181 69.7816 1.56665C69.9516 1.40524 70.167 1.32266 70.4278 1.32266C70.6734 1.32266 70.885 1.40524 71.0626 1.56665C71.2402 1.72805 71.3309 2.02834 71.3309 2.46376C71.3309 2.88417 71.2402 3.1807 71.0626 3.34961C70.885 3.52228 70.6734 3.60486 70.4278 3.60486Z" fill="white"/>
<path d="M74.2822 16.4759V16.2732H74.4447C75.072 16.2732 75.5103 16.1381 75.7559 15.864C76.0016 15.5938 76.1263 15.1058 76.1263 14.3964V7.5986C76.1263 6.90793 76.0091 6.42747 75.7786 6.16472C75.5443 5.89821 75.1173 5.76684 74.4863 5.76684H74.3843V5.56414H78.0345V7.47848H78.0761C78.2537 6.85538 78.5182 6.38993 78.8659 6.08214C79.2135 5.7781 79.5914 5.57916 79.9919 5.49282C80.3963 5.40649 80.7666 5.36145 81.1104 5.36145C82.3272 5.36145 83.2341 5.67675 83.8274 6.30735C84.4206 6.93796 84.7192 7.95519 84.7192 9.35153V14.4001C84.7192 15.1058 84.8287 15.5938 85.0479 15.8678C85.2671 16.1381 85.6714 16.2769 86.2571 16.2769H86.3591V16.4796H82.792V8.65711C82.792 7.77502 82.6257 7.05432 82.2894 6.49879C81.9531 5.94326 81.3901 5.66549 80.5965 5.66549C79.9541 5.66549 79.4478 5.8344 79.0812 6.17598C78.7109 6.5138 78.4502 6.95298 78.2915 7.48974C78.1328 8.02651 78.0572 8.5858 78.0572 9.17136V14.4001C78.0572 15.1058 78.1743 15.5938 78.4049 15.8678C78.6354 16.1381 79.0661 16.2769 79.6972 16.2769H79.7992V16.4796H74.2822V16.4759Z" fill="white"/>
<path d="M92.9152 16.6787C91.3848 16.6787 90.1907 16.1907 89.3367 15.211C88.4827 14.2351 88.0557 12.8613 88.0557 11.0971C88.0557 9.19777 88.4487 7.76389 89.2347 6.79921C90.0206 5.83453 91.1429 5.35406 92.6053 5.35406C93.9317 5.35406 94.9746 5.7632 95.7304 6.57774C96.4899 7.39227 96.8678 8.60845 96.8678 10.2225V10.7105H90.0395C90.0547 12.7862 90.2814 14.2689 90.7273 15.151C91.1694 16.0331 91.9214 16.476 92.9719 16.476C93.739 16.476 94.3813 16.2658 94.9104 15.8454C95.4356 15.425 95.7757 14.8019 95.9268 13.9724C96.0893 13.9986 96.214 14.0812 96.2972 14.2163C96.3803 14.3515 96.4219 14.4941 96.4219 14.6442C96.4219 14.9145 96.2934 15.211 96.0327 15.5301C95.7719 15.8492 95.3865 16.1194 94.8726 16.3446C94.3587 16.5661 93.7087 16.6787 92.9152 16.6787ZM90.0471 10.5115H94.8046C94.8046 8.73231 94.6345 7.4636 94.2906 6.70537C93.9506 5.94714 93.3762 5.56427 92.5675 5.56427C91.7324 5.56427 91.124 5.94339 90.731 6.70537C90.3418 7.4636 90.1151 8.73231 90.0471 10.5115Z" fill="white"/>
<path d="M102.982 16.476V16.2733H103.25C103.851 16.2733 104.282 16.1494 104.543 15.9055C104.803 15.6615 104.932 15.2598 104.932 14.7043V7.35473C104.932 6.78419 104.803 6.37879 104.543 6.13106C104.282 5.88707 103.851 5.76321 103.25 5.76321H103.19V5.56051H106.84V7.59496H106.882C106.976 7.24213 107.12 6.89679 107.312 6.55522C107.505 6.21739 107.792 5.93213 108.174 5.6994C108.556 5.47043 109.081 5.35406 109.753 5.35406C110.422 5.35406 110.944 5.48545 111.31 5.75195C111.681 6.01846 111.862 6.38631 111.862 6.86302C111.862 7.27217 111.715 7.60999 111.42 7.88025C111.125 8.15051 110.638 8.28938 109.954 8.28938C109.954 7.44857 109.81 6.86677 109.523 6.54772C109.236 6.22866 108.915 6.071 108.559 6.071C108.163 6.071 107.849 6.20989 107.615 6.48766C107.38 6.76543 107.21 7.12577 107.101 7.5687C106.991 8.01162 106.923 8.46581 106.897 8.93126C106.87 9.40046 106.855 9.83212 106.855 10.2225V14.5992C106.855 15.196 106.984 15.6239 107.244 15.8829C107.505 16.1419 107.936 16.2696 108.537 16.2696H108.805V16.4723H102.982V16.476Z" fill="white"/>
<path d="M118.048 16.6788C116.57 16.6788 115.41 16.2096 114.564 15.2749C113.717 14.3365 113.294 12.9139 113.294 10.9996C113.294 9.10022 113.702 7.68511 114.515 6.75422C115.327 5.82332 116.525 5.35788 118.112 5.35788C119.59 5.35788 120.75 5.82332 121.596 6.75422C122.442 7.68511 122.866 9.10022 122.866 10.9996C122.866 12.9139 122.454 14.3403 121.638 15.2749C120.814 16.2133 119.62 16.6788 118.048 16.6788ZM118.089 16.4761C119.087 16.4761 119.801 16.0557 120.232 15.2149C120.663 14.3741 120.878 12.9665 120.878 10.9996C120.878 9.04392 120.663 7.65133 120.232 6.81428C119.801 5.98097 119.079 5.56057 118.07 5.56057C117.058 5.56057 116.34 5.97722 115.917 6.81428C115.493 7.64758 115.282 9.04392 115.282 10.9996C115.282 12.9665 115.497 14.3741 115.928 15.2149C116.355 16.0557 117.077 16.4761 118.089 16.4761Z" fill="white"/>
<path d="M124.362 21.3632V21.1605C125.318 21.1605 126.093 21.0892 126.69 20.9465C127.283 20.8039 127.755 20.5787 128.103 20.2747C128.451 19.9706 128.746 19.5765 128.984 19.0923C129.222 18.6118 129.471 18.0375 129.732 17.3731L125.243 6.88551C125.065 6.45009 124.891 6.15731 124.721 5.99966C124.551 5.84201 124.336 5.76694 124.075 5.76694H123.663V5.56424H128.583V5.76694H128.523C128.141 5.76694 127.835 5.82324 127.612 5.9396C127.385 6.05597 127.272 6.26241 127.272 6.55895C127.272 6.79167 127.355 7.10322 127.517 7.49735L129.282 11.754C129.486 12.2569 129.705 12.8125 129.94 13.4243C130.17 14.0362 130.363 14.5729 130.514 15.0346C130.692 14.5054 130.862 14.0024 131.028 13.5294C131.19 13.0527 131.33 12.6398 131.44 12.287L132.936 7.62497C133.061 7.25712 133.121 6.95308 133.121 6.70909C133.121 6.08599 132.672 5.77069 131.769 5.77069H130.907V5.568H135.169V5.77069H135.007C134.501 5.77069 134.134 5.87204 133.911 6.07473C133.684 6.27743 133.461 6.70534 133.246 7.35847L130.253 16.5623C129.94 17.5383 129.63 18.3415 129.331 18.9646C129.029 19.5877 128.681 20.0757 128.285 20.4323C127.888 20.7851 127.393 21.0291 126.799 21.1643C126.206 21.2994 125.458 21.367 124.555 21.367H124.362V21.3632Z" fill="white"/>
<path d="M139.572 16.6788C138.517 16.6788 137.694 16.4123 137.093 15.8755C136.492 15.3387 136.19 14.603 136.19 13.6646C136.19 12.6211 136.575 11.8404 137.35 11.3224C138.121 10.8081 139.292 10.5229 140.864 10.4665L142.564 10.4065V8.88251C142.564 8.12053 142.523 7.49743 142.44 7.00946C142.357 6.5215 142.179 6.1574 141.907 5.92092C141.635 5.68444 141.215 5.56432 140.656 5.56432C139.863 5.56432 139.356 5.80831 139.129 6.29628C138.903 6.78425 138.789 7.55374 138.789 8.59724C138.215 8.59724 137.78 8.5034 137.489 8.31197C137.195 8.12053 137.047 7.80898 137.047 7.37357C137.047 6.8856 137.214 6.49522 137.55 6.20244C137.886 5.90966 138.328 5.6957 138.884 5.56057C139.436 5.42544 140.055 5.35788 140.739 5.35788C141.998 5.35788 142.935 5.62438 143.558 6.15364C144.182 6.6829 144.492 7.59127 144.492 8.88251V14.9709C144.492 15.4588 144.586 15.8004 144.779 15.9881C144.971 16.1795 145.296 16.2734 145.761 16.2734H145.822V16.4761H142.727V14.3365H142.685C142.466 15.1511 142.081 15.7441 141.525 16.1195C140.977 16.4948 140.324 16.6788 139.572 16.6788ZM139.983 16.3935C140.49 16.3935 140.936 16.2659 141.325 16.0069C141.714 15.7479 142.02 15.4025 142.236 14.9671C142.455 14.5317 142.564 14.0663 142.564 13.5633V10.6317L141.253 10.6918C140.093 10.7443 139.288 11.0108 138.846 11.4875C138.4 11.9642 138.181 12.7638 138.181 13.8898C138.177 15.5602 138.778 16.3935 139.983 16.3935Z" fill="white"/>
<path d="M146.974 16.476V16.2733H147.242C147.843 16.2733 148.273 16.1495 148.534 15.9055C148.795 15.6615 148.923 15.2599 148.923 14.7043V2.79035C148.923 2.2198 148.795 1.81441 148.534 1.56668C148.273 1.32269 147.843 1.19882 147.242 1.19882H146.974V0.999878H150.847V14.603C150.847 15.1998 150.975 15.6277 151.236 15.8867C151.497 16.1457 151.928 16.2733 152.528 16.2733H152.797V16.476H146.974Z" fill="white"/>
<path d="M159.047 16.6787C157.517 16.6787 156.323 16.1907 155.469 15.211C154.615 14.2351 154.188 12.8613 154.188 11.0971C154.188 9.19777 154.581 7.76389 155.367 6.79921C156.153 5.83453 157.275 5.35406 158.737 5.35406C160.064 5.35406 161.107 5.7632 161.862 6.57774C162.622 7.39227 163 8.60845 163 10.2225V10.7105H156.172C156.187 12.7862 156.413 14.2689 156.859 15.151C157.301 16.0331 158.053 16.476 159.104 16.476C159.871 16.476 160.513 16.2658 161.042 15.8454C161.568 15.425 161.908 14.8019 162.059 13.9724C162.221 13.9986 162.346 14.0812 162.429 14.2163C162.512 14.3515 162.554 14.4941 162.554 14.6442C162.554 14.9145 162.425 15.211 162.165 15.5301C161.904 15.8492 161.519 16.1194 161.005 16.3446C160.491 16.5661 159.841 16.6787 159.047 16.6787ZM156.175 10.5115H160.933C160.933 8.73231 160.763 7.4636 160.419 6.70537C160.079 5.94714 159.504 5.56427 158.696 5.56427C157.861 5.56427 157.252 5.94339 156.859 6.70537C156.474 7.4636 156.247 8.73231 156.175 10.5115Z" fill="white"/>
<path d="M43.4287 24.0471C44.6039 24.0471 45.4806 24.3474 46.0512 24.9442C46.6255 25.5411 46.9127 26.487 46.9127 27.7745V35.064H46.0323L45.8055 33.2322H45.764C45.3937 33.844 44.944 34.3358 44.4112 34.7074C43.8784 35.079 43.134 35.2667 42.1779 35.2667C41.2068 35.2667 40.4359 35.0077 39.8616 34.4934C39.2872 33.9792 39 33.2247 39 32.2337C39 31.1602 39.4119 30.3382 40.2394 29.7714C41.067 29.2008 42.28 28.8818 43.8784 28.8142L45.7451 28.7129V27.9584C45.7451 26.8849 45.5486 26.1304 45.1518 25.6875C44.7551 25.2483 44.1693 25.0268 43.3871 25.0268C42.8695 25.0268 42.3631 25.0981 41.8719 25.2408C41.3806 25.3834 40.8932 25.5899 40.417 25.8639L40.0278 24.9255C40.5191 24.6665 41.0519 24.4563 41.6262 24.2949C42.2006 24.1335 42.8014 24.0471 43.4287 24.0471ZM45.7451 29.6062L44.0446 29.6888C42.7599 29.7413 41.8001 29.9778 41.1652 30.3907C40.5304 30.8036 40.213 31.4267 40.213 32.2525C40.213 32.9169 40.4095 33.4236 40.7987 33.769C41.1879 34.1143 41.7245 34.287 42.4084 34.287C43.4589 34.287 44.2789 33.9679 44.8684 33.3298C45.4541 32.6917 45.7489 31.7946 45.7489 30.6422V29.6062H45.7451Z" fill="white"/>
<path d="M54.293 35.2664C52.789 35.2664 51.629 34.7822 50.809 33.81C49.989 32.8378 49.5771 31.4715 49.5771 29.7073C49.5771 28.4986 49.7849 27.4701 50.2006 26.6218C50.6162 25.7735 51.1944 25.1279 51.9312 24.6887C52.6681 24.2458 53.5297 24.0281 54.5159 24.0281C55.0072 24.0281 55.472 24.0769 55.9103 24.1707C56.3486 24.2646 56.7378 24.3959 57.0779 24.5573L56.7492 25.5746C56.0236 25.2367 55.2679 25.0641 54.4744 25.0641C53.284 25.0641 52.3734 25.477 51.7385 26.3065C51.1037 27.1361 50.7863 28.2622 50.7863 29.6885C50.7863 31.0473 51.0697 32.1471 51.6365 32.9879C52.2033 33.8288 53.08 34.2492 54.2703 34.2492C54.788 34.2492 55.2717 34.1966 55.7138 34.0878C56.1559 33.9789 56.564 33.8363 56.9343 33.6598V34.6996C56.6056 34.876 56.2239 35.0149 55.7856 35.1162C55.3548 35.2176 54.856 35.2664 54.293 35.2664Z" fill="white"/>
<path d="M63.0068 24.0471C64.182 24.0471 65.0548 24.3474 65.6292 24.9442C66.2036 25.5411 66.4908 26.487 66.4908 27.7745V35.064H65.6103L65.3836 33.2322H65.342C64.9717 33.844 64.522 34.3358 63.9892 34.7074C63.4564 35.079 62.712 35.2667 61.756 35.2667C60.7848 35.2667 60.014 35.0077 59.4396 34.4934C58.8652 33.9792 58.5781 33.2247 58.5781 32.2337C58.5781 31.1602 58.9899 30.3382 59.8175 29.7714C60.645 29.2008 61.858 28.8818 63.4564 28.8142L65.3231 28.7129V27.9584C65.3231 26.8849 65.1266 26.1304 64.7299 25.6875C64.3331 25.2483 63.7474 25.0268 62.9652 25.0268C62.4475 25.0268 61.9412 25.0981 61.4499 25.2408C60.9587 25.3834 60.4712 25.5899 59.9951 25.8639L59.6059 24.9255C60.0971 24.6665 60.6299 24.4563 61.2043 24.2949C61.7787 24.1297 62.3795 24.0471 63.0068 24.0471ZM65.3231 29.6062L63.6227 29.6888C62.3379 29.7413 61.3781 29.9778 60.7433 30.3907C60.1085 30.8036 59.791 31.4267 59.791 32.2525C59.791 32.9169 59.9875 33.4236 60.3767 33.769C60.766 34.1143 61.3025 34.287 61.9865 34.287C63.037 34.287 63.857 33.9679 64.4465 33.3298C65.0322 32.6917 65.3269 31.7946 65.3269 30.6422V29.6062H65.3231Z" fill="white"/>
<path d="M73.4207 35.2667C72.0528 35.2667 71.0023 34.8012 70.2654 33.8703C69.5285 32.9395 69.1582 31.5731 69.1582 29.7677C69.1582 27.8946 69.5437 26.4682 70.3183 25.4923C71.0892 24.5164 72.1586 24.0246 73.5265 24.0246C74.3729 24.0246 75.0644 24.2198 75.5972 24.614C76.13 25.0081 76.5344 25.5036 76.8064 26.1004H76.8896C76.8631 25.7738 76.8404 25.4135 76.8291 25.0193C76.814 24.6252 76.8102 24.2799 76.8102 23.9796V19.5804H77.9779V35.0565H77.0332L76.848 33.1834H76.8027C76.5306 33.754 76.1225 34.242 75.5821 34.6511C75.0418 35.064 74.3238 35.2667 73.4207 35.2667ZM73.6058 34.272C74.781 34.272 75.6086 33.8929 76.0847 33.1309C76.5646 32.3689 76.8027 31.2766 76.8027 29.854V29.6513C76.8027 28.1574 76.5608 27.0125 76.0734 26.2205C75.5897 25.4247 74.7772 25.0306 73.6436 25.0306C72.578 25.0306 71.7656 25.4397 71.2025 26.2618C70.6433 27.0838 70.3637 28.255 70.3637 29.7752C70.3637 31.2541 70.6319 32.3764 71.1647 33.1346C71.6976 33.8891 72.51 34.272 73.6058 34.272Z" fill="white"/>
<path d="M85.207 24.0281C86.0799 24.0281 86.8205 24.242 87.4213 24.67C88.0222 25.0979 88.4718 25.6834 88.7741 26.4304C89.0764 27.1774 89.2238 28.0332 89.2238 28.9979V29.8124H81.927C81.9421 31.2388 82.2595 32.3348 82.8793 33.1006C83.5028 33.8663 84.3945 34.2529 85.5546 34.2529C86.197 34.2529 86.7563 34.2004 87.2362 34.0915C87.7161 33.9827 88.2338 33.7912 88.793 33.521V34.5795C88.2867 34.8235 87.7803 34.9999 87.2777 35.1087C86.7714 35.2176 86.1857 35.2701 85.5131 35.2701C83.9675 35.2701 82.7848 34.7747 81.9572 33.7837C81.1297 32.7928 80.7178 31.4415 80.7178 29.7298C80.7178 28.63 80.8954 27.6503 81.2506 26.787C81.6058 25.9237 82.1159 25.248 82.7772 24.76C83.4423 24.2721 84.251 24.0281 85.207 24.0281ZM85.207 25.004C84.2774 25.004 83.5254 25.3381 82.9511 26.0025C82.3767 26.6669 82.0404 27.6128 81.9459 28.8327H88.0146C87.9995 27.6916 87.769 26.7682 87.3193 26.0625C86.8696 25.3569 86.163 25.004 85.207 25.004Z" fill="white"/>
<path d="M102.755 24.0283C103.779 24.0283 104.577 24.3323 105.143 24.9441C105.71 25.556 105.994 26.5207 105.994 27.8344V35.0639H104.845V27.8945C104.845 26.9185 104.645 26.1979 104.24 25.7362C103.836 25.2745 103.281 25.0455 102.57 25.0455C101.599 25.0455 100.855 25.3495 100.337 25.9501C99.8192 26.5544 99.5584 27.4891 99.5584 28.7503V35.0639H98.4097V27.8945C98.4097 26.9185 98.2056 26.1979 97.7938 25.7362C97.3819 25.2745 96.8226 25.0455 96.1122 25.0455C95.1562 25.0455 94.4193 25.3608 93.8979 25.9914C93.3802 26.622 93.1194 27.5979 93.1194 28.9117V35.0601H91.9707V24.2272H92.8927L93.0779 25.9389H93.161C93.4217 25.4096 93.811 24.9592 94.3286 24.5838C94.8463 24.2122 95.5038 24.0245 96.2974 24.0245C97.0493 24.0245 97.6804 24.1934 98.1943 24.535C98.7082 24.8728 99.071 25.3833 99.2902 26.0627H99.3733C99.6718 25.4096 100.114 24.9104 100.696 24.5575C101.278 24.2047 101.962 24.0283 102.755 24.0283Z" fill="white"/>
<path d="M107.573 24.2309H108.843L111.242 30.9724C111.461 31.5692 111.647 32.1022 111.794 32.5714C111.945 33.0406 112.062 33.4573 112.142 33.8251H112.202C112.285 33.5136 112.399 33.1119 112.55 32.624C112.701 32.136 112.878 31.5917 113.083 30.9949L115.44 24.2346H116.71L112.096 37.0044C111.756 37.9541 111.337 38.6898 110.846 39.2153C110.354 39.737 109.697 39.9998 108.877 39.9998C108.616 39.9998 108.389 39.981 108.189 39.9397C107.993 39.8984 107.804 39.8496 107.626 39.7971V38.8212C107.955 38.9413 108.321 39.0051 108.733 39.0051C109.281 39.0051 109.719 38.8287 110.056 38.4758C110.392 38.123 110.694 37.5862 110.966 36.8655L111.601 35.0338L107.573 24.2309Z" fill="white"/>
</svg>
